<?xml version="1.0" encoding="UTF-8"?>
<svg version="1.1" xmlns="http://www.w3.org/2000/svg" width="2000" height="2000">
<path d="M0 0 C660 0 1320 0 2000 0 C2000 660 2000 1320 2000 2000 C1340 2000 680 2000 0 2000 C0 1340 0 680 0 0 Z " fill="#FEFEFE" transform="translate(0,0)"/>
<path d="M0 0 C2.48907731 1.93131151 4.84844836 3.94112872 7.1875 6.05078125 C7.87199219 6.64246094 8.55648437 7.23414063 9.26171875 7.84375 C23.65411783 21.10511576 32.31259742 41.1427803 33.31347656 60.48535156 C34.3517025 93.80057639 22.66869797 127.05817017 0.1875 152.05078125 C-2.5100827 154.61863579 -5.21563779 157.15965216 -8.00390625 159.62890625 C-10.12282996 161.9539581 -10.12282996 161.9539581 -9.7734375 165.09765625 C-7.4220224 172.32395631 -1.37353426 176.95349245 5.078125 180.55078125 C21.8486656 188.64109229 39.7788791 193.19043481 57.72680664 197.81835938 C82.575084 204.2714879 110.01746946 211.6468269 124.1875 235.05078125 C131.6881675 248.20009958 134.35594932 260.900069 134.4375 275.92578125 C134.4684375 277.33923828 134.4684375 277.33923828 134.5 278.78125 C134.53303326 284.75201208 134.24875504 290.76354932 131.1875 296.05078125 C120.48470642 303.90245107 100.09981051 304.79779394 87.3125 306.11328125 C86.53955597 306.19316284 85.76661194 306.27304443 84.97024536 306.35534668 C78.71480171 306.98782475 72.45361982 307.53579262 66.1875 308.05078125 C65.25440002 308.12810486 64.32130005 308.20542847 63.35992432 308.28509521 C26.11542694 311.30067375 -11.21154357 311.36644213 -48.55387497 311.41914368 C-52.30612857 311.42566162 -56.05833937 311.4371106 -59.81057739 311.44958496 C-85.79942913 311.52441366 -111.70756593 311.21593164 -137.65625 309.6796875 C-138.69444445 309.61903988 -139.73263889 309.55839226 -140.80229378 309.49590683 C-195.83916679 306.19639565 -195.83916679 306.19639565 -210.98046875 297.16015625 C-218.25465256 288.78476338 -215.52799616 267.48128797 -214.8125 257.05078125 C-212.87017634 241.31500174 -204.52757992 227.19263454 -192.47265625 217.08984375 C-179.76901908 207.65991535 -164.88664201 203.53818997 -149.7734375 199.79296875 C-138.70998441 197.03768721 -127.80704947 193.92171777 -116.97143555 190.38018799 C-115.5603417 189.91978332 -114.14778918 189.4638193 -112.73364258 189.01287842 C-105.03690224 186.54841741 -97.74000436 183.73612016 -90.5859375 179.953125 C-89.96887939 179.62756622 -89.35182129 179.30200745 -88.71606445 178.96658325 C-82.21103215 175.38820555 -78.26220669 171.37302576 -75.3125 164.61328125 C-76.01331287 159.61998957 -78.59879247 157.93048357 -82.21875 154.58984375 C-104.16054246 133.11067944 -115.89474442 96.50992869 -116.25 66.55078125 C-116.13187955 46.71097471 -110.39730157 27.9547681 -96.8125 13.05078125 C-96.08546875 12.23222656 -95.3584375 11.41367187 -94.609375 10.5703125 C-88.43412796 3.98670235 -81.71962821 -0.64497399 -73.8125 -4.94921875 C-72.90628906 -5.44421875 -72.00007812 -5.93921875 -71.06640625 -6.44921875 C-47.98710642 -17.97172208 -20.79534039 -14.41232619 0 0 Z " fill="#0074D9" transform="translate(541.8125,847.94921875)"/>
<path d="M0 0 C13.8728037 9.18015476 23.0226007 21.62481358 27.55078125 37.7109375 C31.67707808 62.42235562 22.92014687 89.42987847 8.84375 109.66015625 C5.09924951 114.70871164 1.2148776 119.63529335 -2.88671875 124.3984375 C8.08776451 142.54854443 34.80490256 146.50211607 53.93310547 151.21875 C68.69528484 154.91915031 83.50605454 159.9325633 93.11328125 172.3984375 C99.31715061 182.75403588 102.47337832 192.28948343 102.36328125 204.3359375 C102.37101563 205.17833984 102.37875 206.02074219 102.38671875 206.88867188 C102.36983459 212.3718024 102.29561358 218.2887674 100.11328125 223.3984375 C91.58561615 230.08502273 77.35267971 230.36204524 66.86328125 231.5859375 C65.80185913 231.71186279 65.80185913 231.71186279 64.71899414 231.84033203 C58.8459737 232.46622879 53.01507216 232.47876667 47.11328125 232.3984375 C47.07887939 231.78025146 47.04447754 231.16206543 47.0090332 230.52514648 C45.60254228 207.02911601 40.79623163 188.96537268 23.02734375 172.4609375 C11.27110661 162.67135713 -3.69249997 157.55711704 -18.35327148 154.03613281 C-26.46514253 152.06698438 -34.41765217 149.5882455 -42.3984375 147.15087891 C-47.05982046 145.74130451 -51.73878497 144.3903603 -56.41967773 143.04711914 C-59.99652701 142.00755979 -63.456502 140.85247928 -66.88671875 139.3984375 C-64.62765217 137.66069398 -62.37859492 136.08491428 -59.94921875 134.5859375 C-56.43189634 132.07356435 -54.3327953 129.95636702 -51.88671875 126.3984375 C-52.08013413 122.34512385 -54.65530176 120.29700598 -57.38671875 117.5234375 C-61.36962097 113.24124205 -64.89046511 108.8889595 -68.13671875 104.0234375 C-68.54341797 103.44094238 -68.95011719 102.85844727 -69.36914062 102.25830078 C-70.46484375 100.5625 -70.46484375 100.5625 -71.88671875 97.3984375 C-71.38671875 95.0859375 -71.38671875 95.0859375 -69.88671875 92.3984375 C-69.22374533 90.93242093 -68.57419019 89.46030675 -67.93359375 87.984375 C-67.56435791 87.15035156 -67.19512207 86.31632813 -66.81469727 85.45703125 C-63.34275302 77.54747454 -60.08688962 69.62803834 -57.44921875 61.3984375 C-57.21493164 60.68349121 -56.98064453 59.96854492 -56.73925781 59.23193359 C-53.25506451 47.92245828 -52.56238631 36.54273997 -52.63671875 24.7734375 C-52.62898437 23.54109375 -52.62125 22.30875 -52.61328125 21.0390625 C-52.6290557 13.60929761 -53.25128576 6.64985051 -54.88671875 -0.6015625 C-52.97260318 -1.58570683 -51.05532205 -2.56369599 -49.13671875 -3.5390625 C-48.069375 -4.08433594 -47.00203125 -4.62960937 -45.90234375 -5.19140625 C-31.80055519 -11.78563639 -12.7596331 -7.69776768 0 0 Z " fill="#0174D9" transform="translate(634.88671875,888.6015625)"/>
<path d="M0 0 C0.99 0.66 1.98 1.32 3 2 C2.7834375 3.01835938 2.566875 4.03671875 2.34375 5.0859375 C-3.68388159 34.99528854 2.24451106 64.8202082 16.64916992 91.64892578 C18.17677334 94.59602414 19.00250949 96.71893678 18.97265625 100.0625 C17.77954009 103.66580663 16.08109009 106.28647388 13.875 109.375 C13.47337646 109.93864258 13.07175293 110.50228516 12.65795898 111.08300781 C4.07990991 122.96004504 4.07990991 122.96004504 0 125 C0.25838265 128.70348464 0.70861259 130.63797322 3.0625 133.5625 C6.51367907 136.42624433 10.13221296 138.74459068 14 141 C11.89479364 143.10520636 10.78068729 143.58139233 8.01953125 144.515625 C7.19702881 144.79414307 6.37452637 145.07266113 5.52709961 145.35961914 C4.63128174 145.65344482 3.73546387 145.94727051 2.8125 146.25 C1.41366577 146.71297485 1.41366577 146.71297485 -0.01342773 147.18530273 C-6.80539623 149.38934148 -13.64449416 151.2983733 -20.5625 153.0625 C-50.19238848 160.29321162 -50.19238848 160.29321162 -76 176 C-76.96550781 176.74765625 -77.93101562 177.4953125 -78.92578125 178.265625 C-82.11828205 180.9338136 -84.38159654 184.04164711 -86.5625 187.5625 C-86.94744629 188.18036377 -87.33239258 188.79822754 -87.72900391 189.43481445 C-96.49108678 203.82332971 -98.22960144 218.55824298 -100 235 C-108.71700537 235.40790146 -117.10980233 234.78903637 -125.75 233.6875 C-127.18581421 233.51093872 -127.18581421 233.51093872 -128.65063477 233.33081055 C-147.16192153 230.83807847 -147.16192153 230.83807847 -152 226 C-156.57668064 212.9237696 -155.38045978 194.51617124 -149.640625 182.046875 C-148.21027337 179.58431085 -146.68699394 177.29258151 -145 175 C-143.88625 173.4221875 -143.88625 173.4221875 -142.75 171.8125 C-132.47411127 161.30306834 -119.7625323 157.27260905 -105.84716797 153.94262695 C-96.7442003 151.75054265 -87.86514282 149.00419203 -79 146 C-78.26168945 145.7510498 -77.52337891 145.50209961 -76.76269531 145.24560547 C-65.04878135 141.24096005 -54.86260733 137.60737331 -49 126 C-49.47308594 125.58492187 -49.94617188 125.16984375 -50.43359375 124.7421875 C-60.12801195 115.70918184 -66.53761663 103.95001408 -72 92 C-72.36738281 91.21753906 -72.73476563 90.43507813 -73.11328125 89.62890625 C-80.35315482 73.05267063 -83.75384752 52.21883449 -77.875 34.75 C-71.10251978 17.48681512 -60.00211517 6.27022103 -43.51953125 -1.95703125 C-29.5252952 -7.74999408 -13.48262786 -6.55267628 0 0 Z " fill="#0174D9" transform="translate(419,886)"/>
<path d="M0 0 C12.54 0 25.08 0 38 0 C38 23.43 38 46.86 38 71 C63.41 71 88.82 71 115 71 C115 47.57 115 24.14 115 0 C127.54 0 140.08 0 153 0 C153 57.75 153 115.5 153 175 C140.46 175 127.92 175 115 175 C115 151.24 115 127.48 115 103 C89.26 103 63.52 103 37 103 C37 126.76 37 150.52 37 175 C24.79 175 12.58 175 0 175 C0 117.25 0 59.5 0 0 Z " fill="#022141" transform="translate(759,927)"/>
<path d="M0 0 C1.26457031 0.41765625 1.26457031 0.41765625 2.5546875 0.84375 C9.01183094 3.12043279 13.87503631 6.50845879 19 11 C19.60585937 11.50015625 20.21171875 12.0003125 20.8359375 12.515625 C28.83382782 19.68115569 34.34995494 30.70096124 37 41 C37.19078125 41.65097656 37.3815625 42.30195312 37.578125 42.97265625 C40.33833054 52.88968045 40 62.68904391 40 73 C9.64 73 -20.72 73 -52 73 C-48.9598917 90.07120877 -48.9598917 90.07120877 -38.3125 102.6875 C-31.12420355 106.89619171 -23.12251365 106.91637583 -15 106 C-8.05338765 104.02663114 -2.88499342 100.0646927 1 94 C2.18471802 91.68912416 3.10174213 89.44525753 4 87 C12.03019603 87.55380662 19.31975734 89.66215838 27 92 C28.02996094 92.30679687 29.05992188 92.61359375 30.12109375 92.9296875 C32.41609969 93.61330629 34.70897262 94.30318983 37 95 C35.26306299 105.87049344 28.19928696 114.09852917 20 121 C3.88847248 132.63332344 -16.64840732 136.47768061 -36.16455078 133.69091797 C-53.35116515 130.44901986 -68.64129384 121.09884077 -79 107 C-87.04311805 93.74161375 -90.51468543 81.6921656 -90.375 66.125 C-90.38660156 64.83980469 -90.39820313 63.55460937 -90.41015625 62.23046875 C-90.3553178 44.22517614 -84.58135206 28.13135652 -72 15 C-53.97933422 -2.2658735 -23.63439555 -9.29352503 0 0 Z " fill="#022141" transform="translate(1195,971)"/>
<path d="M0 0 C15.52244252 12.03956761 21.02225835 29.61251311 23.703125 48.35546875 C24.09953016 53.22186368 24 58.11748664 24 63 C-8.01 63 -40.02 63 -73 63 C-69.41679415 85.68719191 -69.41679415 85.68719191 -56 103 C-46.29407297 109.16226745 -36.53983389 110.39377649 -25.17578125 108.5390625 C-14.27659084 105.63033036 -7.70205391 99.54978134 -2 90 C-0.90034139 88.01983182 0.07435459 86.06908974 1 84 C7.37732315 85.87724961 13.70695459 87.85671642 20 90 C19.04784731 99.90833889 10.93377945 109.10520652 3.4453125 115.2890625 C-10.94420638 125.35712842 -28.73765699 129.21011089 -46.07373047 126.69970703 C-61.23825325 123.77125675 -73.89265507 116.323093 -83.29296875 103.9921875 C-96.15656659 84.34684296 -97.52655806 60.2018844 -94 37.4375 C-90.2433864 20.67317294 -80.52805072 6.32077886 -66 -3 C-45.22765179 -14.17368087 -19.89758574 -12.5970327 0 0 Z " fill="#022140" transform="translate(1709,978)"/>
<path d="M0 0 C7.26 0 14.52 0 22 0 C22 25.08 22 50.16 22 76 C53.68 76 85.36 76 118 76 C118 50.92 118 25.84 118 0 C124.93 0 131.86 0 139 0 C139 57.75 139 115.5 139 175 C131.74 175 124.48 175 117 175 C117 148.27 117 121.54 117 94 C85.65 94 54.3 94 22 94 C22 120.73 22 147.46 22 175 C14.74 175 7.48 175 0 175 C0 117.25 0 59.5 0 0 Z " fill="#042242" transform="translate(1260,927)"/>
<path d="M0 0 C0.83402344 -0.01224609 1.66804688 -0.02449219 2.52734375 -0.03710938 C7.66507683 -0.04920765 11.8845282 0.52403464 16.75 2.1875 C16.44180259 6.22950677 16.12768084 10.27103225 15.8125 14.3125 C15.72548828 15.45460938 15.63847656 16.59671875 15.54882812 17.7734375 C15.46181641 18.88203125 15.37480469 19.990625 15.28515625 21.1328125 C15.206604 22.14875488 15.12805176 23.16469727 15.04711914 24.21142578 C14.74531094 27.23446767 14.28217866 30.19716274 13.75 33.1875 C12.75355469 33.03023437 11.75710938 32.87296875 10.73046875 32.7109375 C-2.52355856 30.83985904 -13.88576749 31.63808717 -25.0625 39.625 C-35.03399764 49.13213868 -37.19554646 63.44206647 -37.56884766 76.51660156 C-37.60991066 79.20411558 -37.64161582 81.89051482 -37.6640625 84.578125 C-37.68282347 86.01830086 -37.70240032 87.45846629 -37.7227478 88.89862061 C-37.77355558 92.64668565 -37.81345208 96.39478614 -37.85089111 100.14300537 C-37.89838341 104.66294916 -37.95975595 109.18272425 -38.01873779 113.70252991 C-38.10632204 120.53078322 -38.17653385 127.3590146 -38.25 134.1875 C-50.13 134.1875 -62.01 134.1875 -74.25 134.1875 C-74.25 90.9575 -74.25 47.7275 -74.25 3.1875 C-62.7 3.1875 -51.15 3.1875 -39.25 3.1875 C-38.755 12.5925 -38.755 12.5925 -38.25 22.1875 C-37.445625 21.0325 -36.64125 19.8775 -35.8125 18.6875 C-26.66212889 6.60815496 -15.13569665 0.01148384 0 0 Z " fill="#012040" transform="translate(1083.25,967.8125)"/>
<path d="M0 0 C7.26 0 14.52 0 22 0 C27.17781164 13.87653518 32.09684337 27.8258474 36.90829468 41.83322144 C38.98508346 47.87866717 41.06861247 53.92178805 43.15234375 59.96484375 C43.56468765 61.16095779 43.97703156 62.35707184 44.40187073 63.58943176 C48.12662461 74.38520863 51.89423218 85.1656253 55.6875 95.9375 C55.96539368 96.72670837 56.24328735 97.51591675 56.52960205 98.32904053 C58.01760434 102.55344718 59.50767293 106.77711882 61 111 C63.79232667 104.19110825 66.34283819 97.33139676 68.73046875 90.37109375 C69.07867172 89.36266922 69.42687469 88.35424469 69.78562927 87.31526184 C70.92178814 84.02342937 72.05462474 80.73046378 73.1875 77.4375 C73.97872796 75.14345949 74.77023588 72.84951553 75.56201172 70.55566406 C76.78982687 66.9984452 78.01745933 63.44116443 79.24420166 59.88357544 C83.31078831 48.09107059 87.39815506 36.30580903 91.48916626 24.52175903 C92.93925504 20.34479113 94.38877996 16.16762765 95.83830261 11.99046326 C97.2253691 7.99358457 98.61270967 3.996801 100 0 C107.59 0 115.18 0 123 0 C119.62497188 11.25009373 119.62497188 11.25009373 118.09667969 15.30786133 C117.74988159 16.23357437 117.4030835 17.15928741 117.04577637 18.11305237 C116.67488892 19.0928154 116.30400146 20.07257843 115.921875 21.08203125 C115.52198364 22.14642929 115.12209229 23.21082733 114.71008301 24.30747986 C113.39316383 27.81033173 112.07155847 31.31139612 110.75 34.8125 C109.82619574 37.26779017 108.90269874 39.72319596 107.97949219 42.17871094 C103.3823922 54.40143309 98.76774434 66.61753261 94.15155029 78.83305359 C93.078375 81.6729573 92.00549524 84.51297235 90.93292236 87.35310364 C90.54057467 88.39200572 90.54057467 88.39200572 90.14030075 89.45189571 C89.61701203 90.83753311 89.09373971 92.22317671 88.57048416 93.60882664 C87.03214155 97.68180287 85.49133781 101.75383763 83.94863892 105.82516575 C83.21898893 107.75167823 82.49032729 109.67856109 81.76208496 111.60560608 C80.87101118 113.96331314 79.978282 116.32039545 79.08361816 118.67674255 C78.69025269 119.71895462 78.29688721 120.76116669 77.89160156 121.83496094 C77.54856995 122.74082947 77.20553833 123.646698 76.85211182 124.58001709 C75.8754767 127.2333397 75.8754767 127.2333397 75 131 C66.09 131 57.18 131 48 131 C46.46214844 126.87113281 44.92429687 122.74226563 43.33984375 118.48828125 C41.48821879 113.51959129 39.63599643 108.55112422 37.78373337 103.58267212 C36.94102104 101.32194582 36.09855341 99.06112845 35.25613403 96.80029297 C29.21991352 80.60226477 23.16935368 64.4100422 17.04206657 48.24620628 C16.22794828 46.09848468 15.41438655 43.95055301 14.60096741 41.80256653 C12.28951277 35.69994926 9.97592583 29.59819297 7.65104485 23.50067616 C6.48116208 20.42891846 5.31733963 17.35486376 4.15234375 14.28125 C3.72856445 13.17500778 3.30478516 12.06876556 2.86816406 10.92900085 C2.48748779 9.9218251 2.10681152 8.91464935 1.71459961 7.87695312 C1.3814122 7.00204224 1.04822479 6.12713135 0.7049408 5.22570801 C0 3 0 3 0 0 Z " fill="#032241" transform="translate(1479,971)"/>
<path d="M0 0 C11.88 0 23.76 0 36 0 C36 43.23 36 86.46 36 131 C24.12 131 12.24 131 0 131 C0 87.77 0 44.54 0 0 Z " fill="#001F3F" transform="translate(943,971)"/>
<path d="M0 0 C6.6 0 13.2 0 20 0 C20 43.23 20 86.46 20 131 C13.4 131 6.8 131 0 131 C0 87.77 0 44.54 0 0 Z " fill="#001F3F" transform="translate(1436,971)"/>
<path d="M0 0 C10.88614841 7.38143516 15.39537533 18.45183762 18 31 C18 32.65 18 34.3 18 36 C-5.76 36 -29.52 36 -54 36 C-54 24.23588589 -50.09690816 13.85902168 -42.1875 4.9609375 C-31.09126527 -5.55363976 -13.3130778 -8.06925759 0 0 Z " fill="#FAFAFB" transform="translate(1691,989)"/>
<path d="M0 0 C5.17636758 4.39338761 8.61060432 10.03573563 9.28125 16.86328125 C9.56043975 26.20450507 7.31520763 32.4095893 0.9375 39.265625 C-4.59590761 44.21891729 -10.90436482 44.49378891 -18.09765625 44.28515625 C-24.91077468 43.61576507 -29.49278928 41.27987542 -34 36 C-34.8353125 35.0409375 -34.8353125 35.0409375 -35.6875 34.0625 C-39.79321307 27.61066518 -39.71356029 20.3794779 -39 13 C-37.3214633 6.79846021 -33.36889884 2.39924364 -28 -1 C-18.53817606 -5.5838818 -9.11921939 -5.27301801 0 0 Z " fill="#032241" transform="translate(976,911)"/>
<path d="M0 0 C6.96821788 6.30643182 8.82299939 15.09449448 9.8125 24 C-8.3375 24 -26.4875 24 -45.1875 24 C-42.83540835 12.23954173 -40.39516274 3.84312586 -30.1875 -3 C-19.59910241 -8.96529441 -9.68740362 -6.0783709 0 0 Z " fill="#FCFCFD" transform="translate(1188.1875,999)"/>
<path d="M0 0 C3.95750402 2.23102318 6.67300393 4.86080115 8.4375 9.125 C9.24472967 16.18825965 9.08224186 21.49008776 4.6875 27.3125 C0.7755826 31.03513108 -3.05152189 32.6235462 -8.4375 32.875 C-14.35301022 32.54837674 -17.59253767 30.17579252 -21.5625 25.875 C-24.9242272 20.95247089 -26.37112406 16.30034233 -25.3125 10.3125 C-23.25050322 5.24035612 -20.22954018 1.35136551 -15.26171875 -1.0625 C-9.9156697 -2.77666402 -5.07523162 -2.31121142 0 0 Z " fill="#042242" transform="translate(1454.3125,916.6875)"/>
</svg>
